<svg width="1024" height="768" xmlns="http://www.w3.org/2000/svg">

 <g>
  <title>background</title>
  <rect fill="none" id="canvas_background" height="770" width="1026" y="-1" x="-1"/>
 </g>
 <g>
  <title>Layer 1</title>
  <g fill="none" id="svg_18">
   <path id="svg_2" clip-rule="nonzero" fill="#ffffff" fill-rule="nonzero" stroke-width="1" stroke-linecap="round" stroke-linejoin="round" stroke-miterlimit="4" stroke-dashoffset="0" d="m525.43807,27.916292c-28.607995,-0.482934 -57.346814,5.268875 -83.604955,17.135867c-6.190582,2.792705 -8.781671,9.476852 -5.859219,15.115472c20.953114,40.603485 34.97744,88.636117 48.706923,131.731371c1.553221,4.889475 6.500832,8.301214 12.179265,8.399377l51.169391,0.863795c5.813504,0.095833 10.968283,-3.302097 12.581328,-8.294852c0,0 30.276584,-92.324057 52.97156,-129.655369c3.382031,-5.575986 1.077048,-12.55944 -5.153793,-15.61715c-25.869673,-12.654772 -54.381848,-19.246273 -82.9905,-19.678512zm-0.364345,23.042451c20.851645,0.351999 40.532048,3.947907 59.929677,11.860655c-22.269739,43.082201 -43.48432,105.985574 -46.418302,115.134742l-31.698015,-0.535097c-11.552192,-36.632549 -24.056278,-78.762124 -41.640582,-116.128032c19.623405,-7.309347 38.994231,-10.647074 59.827221,-10.332268z"/>
   <path id="svg_3" clip-rule="nonzero" fill="#ffffff" fill-rule="evenodd" stroke-width="1px" stroke-linejoin="round" stroke-miterlimit="4" stroke-dashoffset="0" d="m272.213349,497.308792l-1.850276,102.516605a12.881738,11.521943 0 0 0 6.010675,9.959354l229.560832,130.642549a12.881738,11.521943 0 0 0 13.383818,0.225933l234.135371,-122.81485a12.881738,11.521943 0 0 0 6.366407,-9.750415l1.850276,-102.516605l-25.7609,-0.434872l-1.734125,96.081091l-221.127416,115.967737l-216.807887,-123.360564l1.734125,-96.081091l-25.7609,-0.434872z"/>
   <path id="svg_4" clip-rule="nonzero" fill="#ffffff" fill-rule="evenodd" stroke-width="1px" stroke-linecap="round" stroke-linejoin="round" stroke-miterlimit="4" stroke-dashoffset="0" d="m521.852707,223.768884a12.881738,11.521943 0 0 0 -3.631647,0.445763l-258.856604,64.776023a12.881738,11.521943 0 0 0 -9.356012,10.859292l-3.326937,184.332654a12.881738,11.521943 0 0 0 6.509177,10.237438l255.321733,131.077421a12.881738,11.521943 0 0 0 12.377082,0.208939l259.896272,-122.379978a12.881738,11.521943 0 0 0 6.874641,-10.011504l3.326937,-184.332654a12.881738,11.521943 0 0 0 -8.958235,-11.179981l-256.361401,-73.473467a12.881738,11.521943 0 0 0 -3.814799,-0.571467l-0.000208,0.011521zm-0.321765,23.538715l243.542707,69.834356l-3.04918,168.943181l-246.901292,116.251762l-242.555812,-124.514333l3.04918,-168.943181l245.914397,-61.571785z"/>
   <path id="svg_5" clip-rule="nonzero" fill="#ffffff" fill-rule="evenodd" stroke-width="1px" stroke-linecap="round" stroke-linejoin="round" stroke-miterlimit="4" stroke-dashoffset="0" d="m520.715025,281.235197a12.881738,11.521943 0 0 0 -12.889645,11.442696l-4.782472,264.978189a12.881738,11.521943 0 1 0 25.7609,0.434872l4.782472,-264.978189a12.881738,11.521943 0 0 0 -12.871256,-11.877569z"/>
   <path id="svg_6" clip-rule="nonzero" fill="#ffffff" fill-rule="evenodd" stroke-width="1px" stroke-linecap="round" stroke-linejoin="round" stroke-miterlimit="4" stroke-dashoffset="0" d="m584.906889,293.979113a12.881738,11.521943 0 0 0 -12.890435,11.486475l-4.152974,230.100147a12.881738,11.521943 0 1 0 25.7609,0.434872l4.152974,-230.100147a12.881738,11.521943 0 0 0 -12.870465,-11.921348z"/>
   <path id="svg_7" clip-rule="nonzero" fill="#ffffff" fill-rule="evenodd" stroke-width="1px" stroke-linecap="round" stroke-linejoin="round" stroke-miterlimit="4" stroke-dashoffset="0" d="m648.893272,318.107875a12.881738,11.521943 0 0 0 -12.890435,11.486475l-2.907826,161.111347a12.881738,11.521943 0 1 0 25.7609,0.434872l2.907826,-161.111347a12.881738,11.521943 0 0 0 -12.870465,-11.921348z"/>
   <path id="svg_8" clip-rule="nonzero" fill="#ffffff" fill-rule="evenodd" stroke-width="1px" stroke-linecap="round" stroke-linejoin="round" stroke-miterlimit="4" stroke-dashoffset="0" d="m712.879656,342.236638a12.881738,11.521943 0 0 0 -12.890435,11.486475l-2.073638,114.892239a12.881738,11.521943 0 1 0 25.7609,0.434872l2.073638,-114.892239a12.881738,11.521943 0 0 0 -12.870465,-11.921348z"/>
   <path id="svg_9" clip-rule="nonzero" fill="#ffffff" fill-rule="evenodd" stroke-width="1px" stroke-linecap="round" stroke-linejoin="round" stroke-miterlimit="4" stroke-dashoffset="0" d="m456.102388,291.804753a12.881738,11.521943 0 0 0 -12.890435,11.486475l-4.152974,230.100147a12.881738,11.521943 0 1 0 25.7609,0.434872l4.152974,-230.100147a12.881738,11.521943 0 0 0 -12.870465,-11.921348z"/>
   <path id="svg_10" clip-rule="nonzero" fill="#ffffff" fill-rule="evenodd" stroke-width="1px" stroke-linecap="round" stroke-linejoin="round" stroke-miterlimit="4" stroke-dashoffset="0" d="m391.28427,313.759154a12.881738,11.521943 0 0 0 -12.890435,11.486475l-2.907826,161.111347a12.881738,11.521943 0 1 0 25.7609,0.434872l2.907826,-161.111347a12.881738,11.521943 0 0 0 -12.870465,-11.921348z"/>
   <path id="svg_11" clip-rule="nonzero" fill="#ffffff" fill-rule="evenodd" stroke-width="1px" stroke-linecap="round" stroke-linejoin="round" stroke-miterlimit="4" stroke-dashoffset="0" d="m326.466152,335.713555a12.881738,11.521943 0 0 0 -12.890435,11.486475l-2.073638,114.892239a12.881738,11.521943 0 1 0 25.7609,0.434872l2.073638,-114.892239a12.881738,11.521943 0 0 0 -12.870465,-11.921348z"/>
   <path id="svg_12" clip-rule="nonzero" fill="#ffffff" fill-rule="nonzero" stroke-width="1" stroke-linejoin="round" stroke-miterlimit="4" stroke-dashoffset="0" d="m590.271805,83.165752l-7.293283,22.07038c96.241813,25.761163 160.688194,106.555764 156.556189,196.260316l25.700012,1.010059c4.612738,-100.135148 -67.531595,-190.592601 -174.962752,-219.349972l-0.000166,0.009217z"/>
   <path id="svg_13" clip-rule="nonzero" fill="#ffffff" fill-rule="nonzero" stroke-width="1" stroke-linejoin="round" stroke-miterlimit="4" stroke-dashoffset="0" d="m467.389907,79.111496c-112.398932,22.174543 -192.226077,111.633856 -191.452555,214.648811l25.769633,-0.049001c-0.692032,-92.29598 70.560384,-172.208106 171.265589,-192.076974l-5.582668,-22.522836z"/>
   <path id="svg_14" clip-rule="nonzero" fill="#ffffff" fill-rule="evenodd" stroke-width="1px" stroke-linecap="round" stroke-linejoin="round" stroke-miterlimit="4" stroke-dashoffset="0" d="m499.424698,33.103322a12.881738,11.521943 0 0 0 -12.860537,12.614057l5.400557,57.712672a12.894619,11.533464 0 1 0 25.702019,-1.870982l-5.400557,-57.712672a12.881738,11.521943 0 0 0 -12.841316,-10.752291l-0.000166,0.009217z"/>
   <path id="svg_15" clip-rule="nonzero" fill="#ffffff" fill-rule="evenodd" stroke-width="1px" stroke-linecap="round" stroke-linejoin="round" stroke-miterlimit="4" stroke-dashoffset="0" d="m550.946316,33.973044a12.881738,11.521943 0 0 0 -12.819117,10.319115l-7.479893,57.495236a12.894619,11.533464 0 1 0 25.618846,2.737334l7.479893,-57.495236a12.881738,11.521943 0 0 0 -12.799896,-13.047233l0.000166,-0.009217z"/>
  </g>
 </g>
</svg>