<svg width="582" height="402" xmlns="http://www.w3.org/2000/svg">

 <g>
  <title>background</title>
  <rect fill="none" id="canvas_background" height="404" width="584" y="-1" x="-1"/>
 </g>
 <g>
  <title>Layer 1</title>
  <g stroke="null" id="svg_1">
   <path id="svg_2" fill="#ffffff" stroke-width="1" stroke-linejoin="round" stroke-miterlimit="4" d="m329.47181,30.683194c-11.080602,24.051036 -23.854965,66.565373 -23.854965,66.565373l-1.955341,6.797725l105.810972,29.468762c-3.202601,-45.732565 -34.438293,-85.654256 -80.000666,-102.83186zm-98.073558,0.358614c-44.809526,17.359567 -75.6226,56.995696 -78.799458,102.467934l105.978589,-29.520562l-2.011261,-6.640997c0,0 -4.150953,-13.684439 -9.776564,-29.962852c-4.438991,-12.843689 -9.666297,-25.061796 -14.329827,-35.124235l-1.061479,-1.219287zm-80.140251,240.631228l0,47.732833l128.716155,73.050972l128.716155,-73.050972l0,-47.732833l-128.716155,65.761813l-128.716155,-65.761813z"/>
   <path id="svg_3" fill="#ffffff" stroke-width="1" stroke-linecap="round" stroke-linejoin="round" stroke-miterlimit="4" d="m238.132967,18.421256c26.834887,-13.170426 58.920535,-13.230195 85.811199,-0.159384c-13.208566,23.48788 -28.670808,76.574685 -28.670808,76.574685l-28.38463,0c0,0 -16.773288,-55.316852 -28.755761,-76.416629l0,0.001328z"/>
   <path id="svg_4" fill-rule="evenodd" fill="#ffffff" d="m281.035635,108.118552l-143.01795,39.845984l0,106.255959l143.01795,73.050972l143.01795,-73.050972l0,-106.255959l-143.01795,-39.845984zm-0.114414,26.485626a7.151613,6.641662 0 0 1 7.262595,6.745925l0,152.74294a7.151613,6.641662 0 1 1 -14.301795,0l0,-152.74294a7.151613,6.641662 0 0 1 7.0392,-6.745925zm-35.754488,6.745925a7.151613,6.641662 0 0 1 7.262595,6.718033l0,132.637985a7.151613,6.641662 0 1 1 -14.301795,0l0,-132.637985a7.151613,6.641662 0 0 1 7.0392,-6.718033zm71.508975,0a7.151613,6.641662 0 0 1 7.262595,6.718033l0,132.637985a7.151613,6.641662 0 1 1 -14.301795,0l0,-132.637985a7.151613,6.641662 0 0 1 7.0392,-6.718033zm-107.263463,13.281995a7.151613,6.641662 0 0 1 7.262595,6.718033l0,92.896928a7.151613,6.641662 0 1 1 -14.301795,0l0,-92.896928a7.151613,6.641662 0 0 1 7.0392,-6.718033zm143.01795,0a7.151613,6.641662 0 0 1 7.262595,6.718033l0,92.896928a7.151613,6.641662 0 1 1 -14.301795,0l0,-92.896928a7.151613,6.641662 0 0 1 7.0392,-6.718033zm-178.772438,13.281995a7.151613,6.641662 0 0 1 7.262595,6.718033l0,66.228011a7.151613,6.641662 0 1 1 -14.301795,0l0,-66.228011a7.151613,6.641662 0 0 1 7.0392,-6.718033zm214.526925,0a7.151613,6.641662 0 0 1 7.262595,6.718033l0,66.228011a7.151613,6.641662 0 1 1 -14.301795,0l0,-66.228011a7.151613,6.641662 0 0 1 7.0392,-6.718033z"/>
  </g>
 </g>
</svg>