<svg xmlns:dc="http://purl.org/dc/elements/1.1/" xmlns:cc="http://creativecommons.org/ns#" xmlns:rdf="http://www.w3.org/1999/02/22-rdf-syntax-ns#" xmlns:svg="http://www.w3.org/2000/svg" xmlns="http://www.w3.org/2000/svg" xmlns:sodipodi="http://sodipodi.sourceforge.net/DTD/sodipodi-0.dtd" xmlns:inkscape="http://www.inkscape.org/namespaces/inkscape" viewBox="0 0 32 40.00000125" version="1.1" x="0px" y="0px"><g transform="translate(0,-1020.3622)"><path style="opacity:1;fill:#000000;fill-opacity:1;stroke:none;stroke-width:0.99999994;stroke-linecap:butt;stroke-linejoin:round;stroke-miterlimit:4;stroke-dasharray:none;stroke-opacity:1" d="m 19.38672,1023.5324 c -0.77477,1.8108 -1.66797,5.0117 -1.66797,5.0117 l -0.13672,0.5118 7.39844,2.2187 c -0.22393,-3.4432 -2.40797,-6.4489 -5.59375,-7.7422 z m -6.85743,0.027 c -3.13314,1.307 -5.28763,4.2912 -5.50976,7.7148 l 7.41016,-2.2226 -0.14063,-0.5 c 0,0 -0.29024,-1.0303 -0.68359,-2.2559 -0.31038,-0.967 -0.67588,-1.8869 -1.00196,-2.6445 z M 7,1041.7683 l 0,3.5938 9,5.5 9,-5.5 0,-3.5938 -9,4.9512 z"/><path d="m 13.00019,1022.6092 c 1.87633,-0.9916 4.1198,-0.9961 6.00003,-0.012 -0.92356,1.7684 -2.0047,5.7653 -2.0047,5.7653 l -1.98469,0 c 0,0 -1.17281,-4.1648 -2.01064,-5.7534 z" style="opacity:1;fill:#000000;fill-opacity:1;stroke:none;stroke-width:0.99999994;stroke-linecap:round;stroke-linejoin:round;stroke-miterlimit:4;stroke-dasharray:none;stroke-opacity:1"/><path style="" d="m 16,1029.3625 -10,3 0,8 10,5.5 10,-5.5 0,-8 z m -0.008,1.9941 a 0.50005,0.50005 0 0 1 0.50781,0.5079 l 0,11.5 a 0.50005,0.50005 0 1 1 -1,0 l 0,-11.5 a 0.50005,0.50005 0 0 1 0.49219,-0.5079 z m -2.5,0.5079 a 0.50004991,0.50004991 0 0 1 0.50781,0.5058 l 0,9.9863 a 0.50004991,0.50004991 0 1 1 -1,0 l 0,-9.9863 a 0.50004991,0.50004991 0 0 1 0.49219,-0.5058 z m 5,0 a 0.50004991,0.50004991 0 0 1 0.50781,0.5058 l 0,9.9863 a 0.50004991,0.50004991 0 1 1 -1,0 l 0,-9.9863 a 0.50004991,0.50004991 0 0 1 0.49219,-0.5058 z m -7.5,1 a 0.50005,0.50005 0 0 1 0.50781,0.5058 l 0,6.9942 a 0.50005,0.50005 0 1 1 -1,0 l 0,-6.9942 a 0.50005,0.50005 0 0 1 0.49219,-0.5058 z m 10,0 a 0.50005,0.50005 0 0 1 0.50781,0.5058 l 0,6.9942 a 0.50005,0.50005 0 1 1 -1,0 l 0,-6.9942 a 0.50005,0.50005 0 0 1 0.49219,-0.5058 z m -12.5,1 a 0.50004994,0.50004994 0 0 1 0.50781,0.5058 l 0,4.9863 a 0.50004994,0.50004994 0 1 1 -1,0 l 0,-4.9863 a 0.50004994,0.50004994 0 0 1 0.49219,-0.5058 z m 15,0 a 0.50004994,0.50004994 0 0 1 0.50781,0.5058 l 0,4.9863 a 0.50004994,0.50004994 0 1 1 -1,0 l 0,-4.9863 a 0.50004994,0.50004994 0 0 1 0.49219,-0.5058 z" fill="#000000" fill-opacity="1" fill-rule="evenodd" stroke="none"/></g><text x="0" y="47.000001" fill="#000000" font-size="5px" font-weight="bold" font-family="'Helvetica Neue', Helvetica, Arial-Unicode, Arial, Sans-serif">Created by anbileru adaleru</text><text x="0" y="52.000001" fill="#000000" font-size="5px" font-weight="bold" font-family="'Helvetica Neue', Helvetica, Arial-Unicode, Arial, Sans-serif">from the Noun Project</text></svg>